<svg width="496" height="182" viewBox="0 0 496 182" fill="none" xmlns="http://www.w3.org/2000/svg">
<path d="M455.103 128.185C467.949 128.185 474.455 120.055 474.455 103.794C474.455 87.5326 467.949 79.5639 455.103 79.5639C442.256 79.5639 435.754 87.5326 435.754 103.794C435.754 120.055 442.259 128.185 455.103 128.185ZM455.103 145.91C429.248 145.91 413.963 128.673 413.963 103.794C413.963 78.9143 429.736 61.6777 455.103 61.6777C480.47 61.6777 495.753 78.2647 495.753 103.794C495.753 129.323 479.982 145.91 455.103 145.91Z" fill="#E8E3D5"/>
<path d="M411.181 145.904H390.042V36.6313H411.181V145.904Z" fill="#E8E3D5"/>
<path d="M365.958 113.39L366.12 104.61C364.007 106.723 360.266 107.862 352.462 109.326C340.429 111.603 336.527 115.017 336.527 121.846C336.527 127.864 340.103 130.791 346.77 130.791C357.665 130.791 365.796 122.822 365.958 113.392V113.39ZM387.258 145.91H366.281C366.281 144.082 366.446 139.081 366.281 136.642C361.239 142.169 352.785 145.91 342.054 145.91C323.842 145.91 315.386 136.965 315.386 123.957C315.386 100.867 330.833 98.2639 352.136 95.3372C362.705 93.8738 365.632 91.7608 365.632 86.2311C365.632 81.0273 360.428 77.9387 352.136 77.9387C342.542 77.9387 338.64 82.6548 337.664 89.8097H317.989C318.315 73.2227 327.421 61.6777 353.111 61.6777C378.802 61.6777 387.258 73.0609 387.258 93.2242V143.794V145.91Z" fill="#E8E3D5"/>
<path d="M312.605 145.904H291.466V65.9007H312.605V145.904ZM312.605 56.3069H291.466V36.6313H312.605V56.3069Z" fill="#E8E3D5"/>
<path d="M251.772 56.5687H222.664V85.3503H250.958C262.991 85.3503 267.545 79.335 267.545 71.0404C267.545 62.7457 262.993 56.5687 251.772 56.5687ZM285.755 145.84H263.64V118.034C263.64 107.627 259.738 103.562 246.73 103.562H222.664V145.84H200.712V36.4773H255.51C275.511 36.4773 288.681 51.2031 288.681 69.0893C288.681 80.6343 282.99 90.3899 272.582 94.1304C282.176 97.2189 285.752 102.587 285.752 115.269V145.84H285.755Z" fill="#E8E3D5"/>
<path d="M110.131 109.831C105.179 109.553 99.7423 107.647 96.4316 103.899C91.8275 98.8941 90.1978 90.7608 92.9899 84.4476C97.4424 74.3802 105.544 72.3303 114.085 72.9275C120.45 72.9275 134.668 73.0868 142.07 73.0868C144.491 73.0526 146.611 73.2005 148.771 72.9275C153.745 72.4042 158.434 69.1515 161.095 64.7948C166.155 57.1394 164.2 45.8572 157.107 40.696C154.059 38.4778 150.395 37.4711 146.64 37.1867C144.765 36.999 142.879 36.7886 141.101 36.2483C135.477 34.5705 130.956 29.75 129.105 24.2216C128.09 21.3437 128.13 18.2212 127.612 15.2409C126.415 8.06321 120.859 2.55763 113.64 0.925299C111.993 0.538544 110.432 0.254165 108.905 0.24279C91.4056 0.185914 63.2146 0.020974 56.6275 0.00391124C47.8809 -0.178091 39.5273 6.01 37.9945 14.7575C36.211 23.2377 41.3451 32.3037 49.4535 35.1532C52.3197 36.2224 54.656 36.4556 57.7786 36.4215C67.3401 36.5125 66.7382 36.74 71.9749 36.7912C78.7101 36.5751 86.0322 39.8511 89.2859 45.8572C96.3915 58.9671 86.2829 72.9301 71.8039 72.4182C53.8946 72.458 46.0577 72.3954 24.5642 72.4125C20.8661 72.4409 18.017 72.202 14.5127 73.1405C4.43263 75.5065 -1.6929 87.132 2.06219 96.8122C4.31866 103.194 10.296 107.801 17.0427 108.625C25.4645 109.171 41.4897 108.688 62.7553 108.841C67.65 108.841 71.2341 108.841 72.6586 108.841C74.0319 108.83 75.3197 108.989 76.8012 109.285C85.8385 110.804 92.0096 119.597 91.4911 128.509C91.4911 134.521 91.4911 152.932 91.4911 162.106C91.474 165.41 92.0666 168.811 93.776 172.025C98.6707 181.551 111.868 184.589 120.478 178.071C126.985 173.299 128.392 166.354 128.022 158.83C128.011 151.18 128.033 138.121 128.022 129.652C128.757 118.408 120.893 110.172 110.251 109.854L110.137 109.843L110.131 109.831Z" fill="#E8E3D5"/>
</svg>
